<svg xmlns="http://www.w3.org/2000/svg" xmlns:xlink="http://www.w3.org/1999/xlink" viewBox="0 0 566.93 566.93"><defs><style>.cls-1{fill:url(#Безымянный_градиент_41);}.cls-2{fill:#e8e8e8;}.cls-3{fill:#c1c0bf;}.cls-4{fill:#ddc1a6;}.cls-5{fill:#faf8fa;}.cls-6{fill:#d8b393;}.cls-7,.cls-8,.cls-9{fill:#ffe188;}.cls-7{opacity:0.3;}.cls-8{opacity:0.5;}.cls-9{opacity:0.79;}.cls-10{fill:#ff5b00;}.cls-11{fill:#ffdc00;}.cls-12{fill:#af927e;}.cls-13{fill:#75594a;}.cls-14{fill:#f0d5b8;}.cls-15{fill:#c4a691;opacity:0.72;}</style><radialGradient id="Безымянный_градиент_41" cx="284.66667" cy="294.66667" r="276.02898" gradientUnits="userSpaceOnUse"><stop offset="0" stop-color="#fbb03b"/><stop offset="0.20024" stop-color="#b8812b"/><stop offset="0.41417" stop-color="#77541c"/><stop offset="0.60902" stop-color="#443010"/><stop offset="0.77773" stop-color="#1f1607"/><stop offset="0.91374" stop-color="#080602"/><stop offset="1"/></radialGradient></defs><title>bear</title><g id="Слой_2" data-name="Слой 2"><rect class="cls-1" width="566.93" height="566.93"/></g><g id="Слой_1" data-name="Слой 1"><path class="cls-2" d="M372.471,376.47688c20.70117,35.33333,18.76043,87.33333-36.874,92s-97.68363-37.33333-97.68363-37.33333H188.10126s9.05676-6,11.64441-26,9.05676-22,9.05676-22l131.323-2.66667Z"/><path class="cls-3" d="M276.725,461.17589C301,455.5,326.802,439.5,326.802,439.5s46.36406-2.77232,57.47633-14.52312C367.5,420.5,335.75,428.75,335.75,428.75l-31,8.75Z"/><path class="cls-4" d="M376.9128,373.21462c11.48974,1.93979,26.84923,10.47688,21.18256,33.14355s-35.66667,28.66667-58.33333,22c-18-22.66667-12-40-12-40S357.77007,369.9828,376.9128,373.21462Z"/><path class="cls-5" d="M185.7256,376.47688c-20.70117,35.33333-18.76043,87.33333,36.874,92S324.79738,436,324.79738,436l45.298-4.85645s-9.05676-6-11.64441-26-9.05676-22-9.05676-22l-131.323-2.66667Z"/><path class="cls-3" d="M200.22055,410.4099c5.05523,10.12745,23.33037,24.24628,53.342,9.4925S290.424,392.465,290.424,392.465l-4.4871-.52265Z"/><path class="cls-4" d="M208.80243,383.14355c-17.82744-4.47688-27.33838,35.52312.66162,41.83333,27.03575,6.09291,39.96465-10.5,39.96465-10.5l9.75-22.5s-24.75-5-26.25-5.5S208.80243,383.14355,208.80243,383.14355Z"/><path class="cls-2" d="M292.625,388.375l-40.1963,1.10188s-5.0537,26.27312-17,35.5C257.25,419.75,285.625,398.375,292.625,388.375Z"/><path class="cls-6" d="M281.03025,241.963s-52.15178.13938-62.99629,13.87573-2.64158,101.82661-2.64158,101.82661l45.66113,14.793h74.19934l19.406-7.3965s2.85382-104.6076-14.2691-110.41913S281.03025,241.963,281.03025,241.963Z"/><path class="cls-7" d="M282.32037,263.10873a46.77784,46.77784,0,1,0,46.7778,46.7778A46.77784,46.77784,0,0,0,282.32037,263.10873Zm0,85.19574a38.4179,38.4179,0,1,1,38.41793-38.41793A38.41787,38.41787,0,0,1,282.32037,348.30447Z"/><path class="cls-8" d="M282.32037,271.46866a38.4179,38.4179,0,1,0,38.41793,38.41787A38.41786,38.41786,0,0,0,282.32037,271.46866Zm0,68.10251A29.68464,29.68464,0,1,1,312.005,309.88653,29.68463,29.68463,0,0,1,282.32037,339.57117Z"/><circle class="cls-9" cx="282.32037" cy="309.88653" r="29.68464"/><path class="cls-10" d="M281.7773,343.70266c18.25061,0,26.09214-24.37842,15.17682-36.30911-8.2608-9.02925-8.24177-16.62166-8.06869-21.51651.1137-3.21549-1.92112-11.14248-5.57124-14.40838,1.92112,4.9949,4.80279,10.95037-9.7977,25.93508a24.84862,24.84862,0,0,0-4.80279,21.90073s-4.22646-.57634-5.57124-8.645C262.18191,315.84647,260.83713,343.70266,281.7773,343.70266Z"/><path class="cls-11" d="M287.01565,290.12483s-12.85064,9.723-3.67519,31.28265a33.34468,33.34468,0,0,1,1.61435,4.79354c1.31193,5.12832,2.49525,11.7858-3.48639,15.14559,3.89026-16.47358-13.5456-10.56037-15.84922-18.15456,0,0,2.73759,18.15456,15.84922,18.15456s22.98136-19.9556,8.0759-33.76095c-7.78773-7.87927-2.52867-17.46084-2.52867-17.46084"/><path class="cls-12" d="M182.6675,375.72671c6.47587,10.49167,19.00385,17.69187,31.22565,15.71336a21.97286,21.97286,0,0,1,10.403.73615c10.12869,3.33731,32.20971,9.13806,50.85741,3.81951a30.88185,30.88185,0,0,1,14.74957-.41024c14.99883,3.10961,38.21905,1.59465,50.75605-3.0712a18.43537,18.43537,0,0,1,7.6041-1.11615c12.44082.79892,28.72885-5.2447,33.71-17.86954-48.13991-3.61253-111.13991,7.87695-111.13991,7.87695Z"/><path class="cls-12" d="M236.89988,278.0173c2.70486,12.28583,2.16182,30.25243-8.77488,57.7327-2.83876,10.97656,4.8407,9.34642,10.75,8,9.875-2.25,32.375.625,42.625,10.75,11.375-8,21.125-11.36618,32.74118-11.36618,11.67931,0,26.52116,6.99118,21.88382-7.88382-3.16741-10.16-17.28488-47.96227-7.45494-65.60614C336.125,293.25,344.25,332.875,344.25,332.875v24.5l-48.13741,1.875L262,360.5l-38.625-6.25-6.5-14.875,10.625-41.75Z"/><path class="cls-4" d="M344.7029,256.21373c31.042-4.13227,41.42557,52.70963,48.32983,79.30188s-20.2525,60.30742-48.32983,50.81018c-23.47449,6.1732-64.73742,14.72071-70.80243-7.12292s23.52873-41.78782,56.37126-31.34086c15.812,1.89945,6.584-19.21352,1.98112-30.6102S316.16529,260.01262,344.7029,256.21373Z"/><path class="cls-4" d="M362.86915,155.27844C351.37549,124.62867,330.30377,93.5,283.37132,93.5s-68.00416,31.12867-79.49782,61.77843-38.3122,108.71088,79.49782,110.62649C401.18135,263.98932,374.36281,185.9282,362.86915,155.27844Z"/><path class="cls-13" d="M334.32256,230.93784a13.11628,13.11628,0,0,0-1.14663-4.53087,9.72545,9.72545,0,0,0-2.94175-3.74938,6.67311,6.67311,0,0,0-4.403-1.48453,11.94527,11.94527,0,0,1,3.31911,2.66547,13.92186,13.92186,0,0,1,1.80834,2.73446,19.2989,19.2989,0,0,1-8.36565,7.59977,20.02252,20.02252,0,0,1-6.34984,1.72988,27.62258,27.62258,0,0,1-3.30239.13639,14.71584,14.71584,0,0,1-3.17659-.40174c-4.1704-1.04228-8.12515-3.51641-12.54611-5.2221a38.43737,38.43737,0,0,0-13.99714-2.66284,37.89289,37.89289,0,0,0-13.99714,2.69055c-4.41371,1.73333-8.34642,4.21174-12.53062,5.20333a15.44875,15.44875,0,0,1-3.18746.38887,27.83308,27.83308,0,0,1-3.30175-.13715,19.98181,19.98181,0,0,1-6.34867-1.72871,19.27256,19.27256,0,0,1-8.20015-7.33571,14.15121,14.15121,0,0,1,1.93736-2.995,11.94442,11.94442,0,0,1,3.31911-2.66547,6.67311,6.67311,0,0,0-4.403,1.48453,9.72545,9.72545,0,0,0-2.94175,3.74938,13.11768,13.11768,0,0,0-1.14669,4.53087c-.02619.77073-.02134,1.54059.02409,2.29987a19.22346,19.22346,0,0,0,.41892,2.25579,21.30384,21.30384,0,0,0,.59062-2.17862c.18947-.71169.39875-1.40847.55244-2.10537a30.35568,30.35568,0,0,1,1.43016-3.93411c.01274-.02759.02742-.05384.04028-.08138a19.03223,19.03223,0,0,0,7.69921,8.28843,21.11806,21.11806,0,0,0,6.74573,2.37522,23.97906,23.97906,0,0,0,3.56827.37023,17.82159,17.82159,0,0,0,3.66443-.249,30.0213,30.0213,0,0,0,6.815-2.19873c2.13747-.91741,4.19782-1.85458,6.29483-2.61111a35.8815,35.8815,0,0,1,12.957-2.32547,36.53263,36.53263,0,0,1,12.97287,2.29507c2.10093.74928,4.16538,1.67131,6.29822,2.58667a31.60948,31.60948,0,0,0,6.79285,2.23176,17.0747,17.0747,0,0,0,3.67151.26687,24.11914,24.11914,0,0,0,3.56757-.37093,21.07792,21.07792,0,0,0,6.74456-2.37417,19.0068,19.0068,0,0,0,7.84554-8.59172c.06349.12978.13153.25664.19222.38823a30.36432,30.36432,0,0,1,1.43016,3.93411c.15369.6969.363,1.39368.55239,2.10537a21.2894,21.2894,0,0,0,.59068,2.17862,19.21126,19.21126,0,0,0,.41886-2.25579C334.344,232.47843,334.34875,231.70857,334.32256,230.93784Z"/><ellipse class="cls-7" cx="241.10897" cy="168.76457" rx="17.57245" ry="16.65044"/><ellipse class="cls-4" cx="241.11861" cy="169.72814" rx="19.79464" ry="6.74174"/><ellipse class="cls-7" cx="325.62404" cy="168.76457" rx="17.57245" ry="16.65044"/><ellipse class="cls-4" cx="325.63368" cy="169.72814" rx="19.79464" ry="6.74174"/><path class="cls-13" d="M224.25181,173.16543s5.22028,6.60889,16.7484,6.60889,16.96592-6.60889,16.96592-6.60889-5.78318,3.30445-16.85716,3.30445S224.25181,173.16543,224.25181,173.16543Z"/><path class="cls-13" d="M308.77652,173.16543s5.22028,6.60889,16.7484,6.60889,16.96592-6.60889,16.96592-6.60889-5.78318,3.30445-16.85716,3.30445S308.77652,173.16543,308.77652,173.16543Z"/><path class="cls-14" d="M283.86321,164.302c-.35706-.01374-.60921-.01537-.9837,0-13.4804.69906-44.386,18.56359-37.738,42.39578,5.76209,16.88336,22.78693,22.24543,38.2299,12.88074,16.25837,10.55119,32.46773,4.00262,38.22982-12.88074C328.24916,182.86557,297.34361,165.001,283.86321,164.302Z"/><ellipse class="cls-7" cx="283.37132" cy="240.01064" rx="16.30849" ry="6.26181"/><path class="cls-15" d="M302.95256,194.48588,289.73545,165.348a26.67659,26.67659,0,0,0-5.76813-1.046c-.35706-.01373-.60919-.01538-.98364,0a28.99174,28.99174,0,0,0-7.197,1.48438l-11.98694,29.16486Z"/><path class="cls-13" d="M283.05228,187.05928c-1.82962-.0585-11.2764-.13138-16.66434,4.29456a9.939,9.939,0,0,0-2.88174,11.07592c4.62468,12.72531,15.98808,16.88842,19.85782,16.88842,3.87237,0,15.24853-4.16875,19.8672-16.91427a9.85952,9.85952,0,0,0-2.33722-10.56527c-5.26668-4.91589-15.32415-4.83992-17.21824-4.77936C283.46415,187.066,283.26389,187.066,283.05228,187.05928Z"/><path class="cls-12" d="M203.87347,162.62134c11.49371-30.64972,32.56543-61.77838,79.49786-61.77838s68.00415,31.12866,79.4978,61.77838c4.084,10.89087,10.09729,27.76855,10.875,45.0885.96381-19.78088-6.2146-40.0036-10.875-52.4314C351.37549,124.62866,330.30377,93.5,283.37134,93.5s-68.00415,31.12866-79.49786,61.77844c-4.6604,12.4278-11.83881,32.65051-10.875,52.4314C193.77618,190.38989,199.78943,173.51221,203.87347,162.62134Z"/><path class="cls-6" d="M370.57482,167.29968c15.28717-2.95514,30.7153-9.41466,24.18768-38.18108-7.13911-31.4613-27.75524-34.46175-34.52617-34.61655s-21.33443,1.74789-26.17531,11.00856,4.46294,17.15111,9.15433,17.39383c.13411.05934.272.13118.41021.20438,4.14164-5.87427,15.56357-10.4453,23.47844-1.09828,8.491,10.02761,5.72,23.69229-7.53956,25.13128q1.773,4.05232,3.30473,8.13661c1.27413,3.39774,2.73644,7.38031,4.16935,11.775A6.98863,6.98863,0,0,0,370.57482,167.29968Z"/><path class="cls-13" d="M359.56444,147.14182c13.25956-1.439,16.03061-15.10367,7.53956-25.13128-7.91487-9.347-19.3368-4.776-23.47844,1.09828,2.2092,1.16984,4.91308,4.08032,7.42813,7.85185h.07226A125.54964,125.54964,0,0,1,359.56444,147.14182Z"/><path class="cls-7" d="M370.57482,167.29968c13.39828-2.59,26.90232-7.87442,25.64093-28.50674C390.002,162.40268,364.757,160.41026,364.757,160.41026c.74706,2.08152,1.51808,4.30153,2.28157,6.64319A6.98863,6.98863,0,0,0,370.57482,167.29968Z"/><path class="cls-6" d="M207.60542,146.15829c-13.34491-1.3814-16.15144-15.08876-7.63917-25.14133,7.91481-9.347,19.33674-4.77593,23.47844,1.09828.1382-.07319.276-.145.41015-.20438,4.6914-.24273,13.99533-8.13316,9.15433-17.39383S213.6048,93.35367,206.83387,93.50847,179.44681,96.66378,172.3077,128.125c-6.52762,28.76642,8.9005,35.226,24.18768,38.18108a6.98879,6.98879,0,0,0,3.537-.24647c1.32663-4.00034,2.66413-7.64256,3.84116-10.78121C205.01589,152.23208,206.25623,149.18218,207.60542,146.15829Z"/><path class="cls-13" d="M199.96625,121.017c-8.51227,10.05257-5.70573,23.75993,7.63917,25.14133,1.31944-2.957,2.74913-5.88643,4.29481-8.76423,3.26165-7.15583,8.0277-13.41664,11.54446-15.27882C219.303,116.241,207.88106,111.66994,199.96625,121.017Z"/><path class="cls-7" d="M196.49289,166.3061c-13.39828-2.59-26.90232-7.87442-25.64093-28.50674,6.21375,23.60974,31.45879,21.61732,31.45879,21.61732-.74706,2.08152-1.51808,4.30153-2.28157,6.64319A6.98863,6.98863,0,0,1,196.49289,166.3061Z"/><path class="cls-12" d="M281.23761,388.9407c10.73771-5.58931,10.402-15.43325,9.9829-18.51023-1.443-10.59481-12.54214-19.56481-16.30384-19.56481-.03439,5.87741,8.27737,23.32172,8.27737,23.32172l-4.76618,13.50494Z"/><path class="cls-4" d="M218.034,256.21373c-31.042-4.13227-41.42557,52.70963-48.32983,79.30188s20.2525,60.30742,48.32983,50.81018c23.47449,6.1732,64.73742,14.72071,70.80243-7.12292s-23.52873-41.78782-56.37126-31.34086c-15.812,1.89945-4.72047-19.21352-.11763-30.6102S246.57157,260.01262,218.034,256.21373Z"/></g></svg>