<?xml version="1.0" encoding="utf-8"?>
<!-- Generator: Adobe Illustrator 21.0.0, SVG Export Plug-In . SVG Version: 6.00 Build 0)  -->
<svg version="1.1" id="Слой_1" xmlns="http://www.w3.org/2000/svg" xmlns:xlink="http://www.w3.org/1999/xlink" x="0px" y="0px"
	 viewBox="0 0 566.9 566.9" style="enable-background:new 0 0 566.9 566.9;" xml:space="preserve">
<style type="text/css">
	.st0{fill:url(#SVGID_1_);}
	.st1{fill:#E8E8E8;}
	.st2{fill:#C1C0BF;}
	.st3{fill:#DDC1A6;}
	.st4{fill:#FAF8FA;}
	.st5{fill:#D8B393;}
	.st6{opacity:0.3;fill:#FFE188;enable-background:new    ;}
	.st7{opacity:0.5;fill:#FFE188;enable-background:new    ;}
	.st8{opacity:0.79;fill:#FFE188;enable-background:new    ;}
	.st9{fill:#FF5B00;}
	.st10{fill:#FFDC00;}
	.st11{fill:#AF927E;}
	.st12{fill:#75594A;}
	.st13{fill:#F0D5B8;}
	.st14{opacity:0.72;fill:#C4A691;enable-background:new    ;}
</style>
<title>bear</title>
<g id="Слой_2">
	
		<radialGradient id="SVGID_1_" cx="284.6667" cy="272.2633" r="276.029" gradientTransform="matrix(1 0 0 -1 0 566.93)" gradientUnits="userSpaceOnUse">
		<stop  offset="0" style="stop-color:#FBB03B"/>
		<stop  offset="0.2002" style="stop-color:#B8812B"/>
		<stop  offset="0.4142" style="stop-color:#77541C"/>
		<stop  offset="0.609" style="stop-color:#443010"/>
		<stop  offset="0.7777" style="stop-color:#1F1607"/>
		<stop  offset="0.9137" style="stop-color:#080602"/>
		<stop  offset="1" style="stop-color:#000000"/>
	</radialGradient>
	<rect y="0" class="st0" width="566.9" height="566.9"/>
</g>
<g id="Слой_1_1_">
	<path class="st1" d="M372.5,376.5c20.7,35.3,18.8,87.3-36.9,92s-97.7-37.3-97.7-37.3h-49.8c0,0,9.1-6,11.6-26s9.1-22,9.1-22
		l131.3-2.7L372.5,376.5z"/>
	<path class="st2" d="M276.7,461.2c24.3-5.7,50.1-21.7,50.1-21.7s46.4-2.8,57.5-14.5c-16.8-4.5-48.5,3.8-48.5,3.8l-31,8.8
		L276.7,461.2z"/>
	<path class="st3" d="M376.9,373.2c11.5,1.9,26.8,10.5,21.2,33.1s-35.7,28.7-58.3,22c-18-22.7-12-40-12-40S357.8,370,376.9,373.2z"
		/>
	<path class="st4" d="M185.7,376.5c-20.7,35.3-18.8,87.3,36.9,92S324.8,436,324.8,436l45.3-4.9c0,0-9.1-6-11.6-26s-9.1-22-9.1-22
		l-131.3-2.7L185.7,376.5z"/>
	<path class="st2" d="M200.2,410.4c5.1,10.1,23.3,24.2,53.3,9.5s36.9-27.4,36.9-27.4l-4.5-0.5L200.2,410.4z"/>
	<path class="st3" d="M208.8,383.1c-17.8-4.5-27.3,35.5,0.7,41.8c27,6.1,40-10.5,40-10.5l9.8-22.5c0,0-24.8-5-26.3-5.5
		S208.8,383.1,208.8,383.1z"/>
	<path class="st1" d="M292.6,388.4l-40.2,1.1c0,0-5.1,26.3-17,35.5C257.3,419.8,285.6,398.4,292.6,388.4z"/>
	<path class="st5" d="M281,242c0,0-52.2,0.1-63,13.9c-10.8,13.7-2.6,101.8-2.6,101.8l45.7,14.8h74.2l19.4-7.4
		c0,0,2.9-104.6-14.3-110.4S281,242,281,242z"/>
	<path class="st6" d="M282.3,263.1c-25.8,0-46.8,20.9-46.8,46.8s20.9,46.8,46.8,46.8c25.8,0,46.8-20.9,46.8-46.8c0,0,0,0,0,0
		C329.1,284.1,308.2,263.1,282.3,263.1z M282.3,348.3c-21.2,0-38.4-17.2-38.4-38.4s17.2-38.4,38.4-38.4c21.2,0,38.4,17.2,38.4,38.4
		S303.5,348.3,282.3,348.3C282.3,348.3,282.3,348.3,282.3,348.3z"/>
	<path class="st7" d="M282.3,271.5c-21.2,0-38.4,17.2-38.4,38.4s17.2,38.4,38.4,38.4c21.2,0,38.4-17.2,38.4-38.4
		C320.7,288.7,303.5,271.5,282.3,271.5C282.3,271.5,282.3,271.5,282.3,271.5z M282.3,339.6c-16.4,0-29.7-13.3-29.7-29.7
		c0-16.4,13.3-29.7,29.7-29.7c16.4,0,29.7,13.3,29.7,29.7c0,0,0,0,0,0C312,326.3,298.7,339.6,282.3,339.6L282.3,339.6z"/>
	<circle class="st8" cx="282.3" cy="309.9" r="29.7"/>
	<path class="st9" d="M281.8,343.7c18.3,0,26.1-24.4,15.2-36.3c-8.3-9-8.2-16.6-8.1-21.5c0.1-3.2-1.9-11.1-5.6-14.4
		c1.9,5,4.8,11-9.8,25.9c-5,6.1-6.8,14.3-4.8,21.9c0,0-4.2-0.6-5.6-8.6C262.2,315.8,260.8,343.7,281.8,343.7z"/>
	<path class="st10" d="M287,290.1c0,0-12.9,9.7-3.7,31.3c0.7,1.6,1.2,3.2,1.6,4.8c1.3,5.1,2.5,11.8-3.5,15.1
		c3.9-16.5-13.5-10.6-15.8-18.2c0,0,2.7,18.2,15.8,18.2s23-20,8.1-33.8C281.8,299.7,287,290.1,287,290.1"/>
	<path class="st11" d="M182.7,375.7c6.5,10.5,19,17.7,31.2,15.7c3.5-0.6,7-0.3,10.4,0.7c10.1,3.3,32.2,9.1,50.9,3.8
		c4.8-1.3,9.9-1.5,14.7-0.4c15,3.1,38.2,1.6,50.8-3.1c2.4-0.9,5-1.3,7.6-1.1c12.4,0.8,28.7-5.2,33.7-17.9
		c-48.1-3.6-111.1,7.9-111.1,7.9L182.7,375.7z"/>
	<path class="st11" d="M236.9,278c2.7,12.3,2.2,30.3-8.8,57.7c-2.8,11,4.8,9.3,10.8,8c9.9-2.3,32.4,0.6,42.6,10.8
		c11.4-8,21.1-11.4,32.7-11.4c11.7,0,26.5,7,21.9-7.9c-3.2-10.2-17.3-48-7.5-65.6c7.5,23.6,15.6,63.2,15.6,63.2v24.5l-48.1,1.9
		l-34.1,1.3l-38.6-6.3l-6.5-14.9l10.6-41.8L236.9,278z"/>
	<path class="st3" d="M344.7,256.2c31-4.1,41.4,52.7,48.3,79.3s-20.3,60.3-48.3,50.8c-23.5,6.2-64.7,14.7-70.8-7.1
		s23.5-41.8,56.4-31.3c15.8,1.9,6.6-19.2,2-30.6S316.2,260,344.7,256.2z"/>
	<path class="st3" d="M362.9,155.3c-11.5-30.6-32.6-61.8-79.5-61.8s-68,31.1-79.5,61.8S165.6,264,283.4,265.9
		C401.2,264,374.4,185.9,362.9,155.3z"/>
	<path class="st12" d="M334.3,230.9c-0.1-1.6-0.5-3.1-1.1-4.5c-0.7-1.5-1.7-2.8-2.9-3.7c-1.2-1-2.8-1.5-4.4-1.5
		c1.3,0.7,2.4,1.6,3.3,2.7c0.7,0.8,1.3,1.8,1.8,2.7c-2,3.3-4.9,6-8.4,7.6c-2,0.9-4.2,1.5-6.3,1.7c-1.1,0.1-2.2,0.2-3.3,0.1
		c-1.1,0-2.1-0.2-3.2-0.4c-4.2-1-8.1-3.5-12.5-5.2c-4.5-1.8-9.2-2.7-14-2.7c-4.8,0-9.5,0.9-14,2.7c-4.4,1.7-8.3,4.2-12.5,5.2
		c-1,0.2-2.1,0.4-3.2,0.4c-1.1,0-2.2,0-3.3-0.1c-2.2-0.2-4.3-0.8-6.3-1.7c-3.4-1.6-6.2-4.1-8.2-7.3c0.5-1.1,1.2-2.1,1.9-3
		c0.9-1.1,2.1-2,3.3-2.7c-1.6,0-3.2,0.5-4.4,1.5c-1.3,1-2.3,2.3-2.9,3.7c-0.7,1.4-1,3-1.1,4.5c0,0.8,0,1.5,0,2.3
		c0.1,0.8,0.2,1.5,0.4,2.3c0.2-0.7,0.4-1.4,0.6-2.2c0.2-0.7,0.4-1.4,0.6-2.1c0.4-1.3,0.9-2.7,1.4-3.9c0,0,0-0.1,0-0.1
		c1.7,3.5,4.4,6.4,7.7,8.3c2.1,1.2,4.4,2,6.7,2.4c1.2,0.2,2.4,0.3,3.6,0.4c1.2,0,2.5,0,3.7-0.2c2.4-0.5,4.6-1.2,6.8-2.2
		c2.1-0.9,4.2-1.9,6.3-2.6c4.1-1.6,8.5-2.4,13-2.3c4.4,0,8.8,0.8,13,2.3c2.1,0.7,4.2,1.7,6.3,2.6c2.2,1,4.5,1.7,6.8,2.2
		c1.2,0.2,2.4,0.3,3.7,0.3c1.2,0,2.4-0.2,3.6-0.4c2.4-0.4,4.6-1.2,6.7-2.4c3.4-2,6.2-5,7.8-8.6c0.1,0.1,0.1,0.3,0.2,0.4
		c0.6,1.3,1,2.6,1.4,3.9c0.2,0.7,0.4,1.4,0.6,2.1c0.2,0.7,0.4,1.5,0.6,2.2c0.2-0.7,0.3-1.5,0.4-2.3
		C334.3,232.5,334.3,231.7,334.3,230.9z"/>
	<ellipse class="st6" cx="241.1" cy="168.8" rx="17.6" ry="16.7"/>
	<ellipse class="st3" cx="241.1" cy="169.7" rx="19.8" ry="6.7"/>
	<ellipse class="st6" cx="325.6" cy="168.8" rx="17.6" ry="16.7"/>
	<ellipse class="st3" cx="325.6" cy="169.7" rx="19.8" ry="6.7"/>
	<path class="st12" d="M224.3,173.2c0,0,5.2,6.6,16.7,6.6s17-6.6,17-6.6s-5.8,3.3-16.9,3.3S224.3,173.2,224.3,173.2z"/>
	<path class="st12" d="M308.8,173.2c0,0,5.2,6.6,16.7,6.6s17-6.6,17-6.6s-5.8,3.3-16.9,3.3S308.8,173.2,308.8,173.2z"/>
	<path class="st13" d="M283.9,164.3c-0.4,0-0.6,0-1,0c-13.5,0.7-44.4,18.6-37.7,42.4c5.8,16.9,22.8,22.2,38.2,12.9
		c16.3,10.6,32.5,4,38.2-12.9C328.2,182.9,297.3,165,283.9,164.3z"/>
	<ellipse class="st6" cx="283.4" cy="240" rx="16.3" ry="6.3"/>
	<path class="st14" d="M303,194.5l-13.2-29.1c-1.9-0.6-3.8-0.9-5.8-1c-0.4,0-0.6,0-1,0c-2.5,0.2-4.9,0.7-7.2,1.5l-12,29.2L303,194.5
		z"/>
	<path class="st12" d="M283.1,187.1c-1.8-0.1-11.3-0.1-16.7,4.3c-3.2,2.7-4.4,7.1-2.9,11.1c4.6,12.7,16,16.9,19.9,16.9
		c3.9,0,15.2-4.2,19.9-16.9c1.4-3.7,0.5-7.8-2.3-10.6c-5.3-4.9-15.3-4.8-17.2-4.8C283.5,187.1,283.3,187.1,283.1,187.1z"/>
	<path class="st11" d="M203.9,162.6c11.5-30.6,32.6-61.8,79.5-61.8s68,31.1,79.5,61.8c4.1,10.9,10.1,27.8,10.9,45.1
		c1-19.8-6.2-40-10.9-52.4c-11.5-30.6-32.6-61.8-79.5-61.8s-68,31.1-79.5,61.8c-4.7,12.4-11.8,32.7-10.9,52.4
		C193.8,190.4,199.8,173.5,203.9,162.6z"/>
	<path class="st5" d="M370.6,167.3c15.3-3,30.7-9.4,24.2-38.2c-7.1-31.5-27.8-34.5-34.5-34.6s-21.3,1.7-26.2,11s4.5,17.2,9.2,17.4
		c0.1,0.1,0.3,0.1,0.4,0.2c4.1-5.9,15.6-10.4,23.5-1.1c8.5,10,5.7,23.7-7.5,25.1c1.2,2.7,2.3,5.4,3.3,8.1c1.3,3.4,2.7,7.4,4.2,11.8
		C368.2,167.4,369.4,167.5,370.6,167.3z"/>
	<path class="st12" d="M359.6,147.1c13.3-1.4,16-15.1,7.5-25.1c-7.9-9.3-19.3-4.8-23.5,1.1c2.2,1.2,4.9,4.1,7.4,7.9h0.1
		C354.3,136.1,357.1,141.6,359.6,147.1z"/>
	<path class="st6" d="M370.6,167.3c13.4-2.6,26.9-7.9,25.6-28.5c-6.2,23.6-31.5,21.6-31.5,21.6c0.7,2.1,1.5,4.3,2.3,6.6
		C368.2,167.4,369.4,167.5,370.6,167.3z"/>
	<path class="st5" d="M207.6,146.2c-13.3-1.4-16.2-15.1-7.6-25.1c7.9-9.3,19.3-4.8,23.5,1.1c0.1-0.1,0.3-0.1,0.4-0.2
		c4.7-0.2,14-8.1,9.2-17.4s-19.4-11.2-26.2-11s-27.4,3.2-34.5,34.6c-6.5,28.8,8.9,35.2,24.2,38.2c1.2,0.2,2.4,0.1,3.5-0.2
		c1.3-4,2.7-7.6,3.8-10.8C205,152.2,206.3,149.2,207.6,146.2z"/>
	<path class="st12" d="M200,121c-8.5,10.1-5.7,23.8,7.6,25.1c1.3-3,2.7-5.9,4.3-8.8c3.3-7.2,8-13.4,11.5-15.3
		C219.3,116.2,207.9,111.7,200,121z"/>
	<path class="st6" d="M196.5,166.3c-13.4-2.6-26.9-7.9-25.6-28.5c6.2,23.6,31.5,21.6,31.5,21.6c-0.7,2.1-1.5,4.3-2.3,6.6
		C198.9,166.4,197.7,166.5,196.5,166.3z"/>
	<path class="st11" d="M281.2,388.9c10.7-5.6,10.4-15.4,10-18.5c-1.4-10.6-12.5-19.6-16.3-19.6c0,5.9,8.3,23.3,8.3,23.3l-4.8,13.5
		L281.2,388.9z"/>
	<path class="st3" d="M218,256.2c-31-4.1-41.4,52.7-48.3,79.3s20.3,60.3,48.3,50.8c23.5,6.2,64.7,14.7,70.8-7.1
		s-23.5-41.8-56.4-31.3c-15.8,1.9-4.7-19.2-0.1-30.6S246.6,260,218,256.2z"/>
</g>
</svg>
