<?xml version="1.0" encoding="utf-8"?>
<!-- Generator: Adobe Illustrator 21.0.0, SVG Export Plug-In . SVG Version: 6.00 Build 0)  -->
<svg version="1.1" xmlns="http://www.w3.org/2000/svg" xmlns:xlink="http://www.w3.org/1999/xlink" x="0px" y="0px"
	 viewBox="0 0 566.9 566.9" style="enable-background:new 0 0 566.9 566.9;" xml:space="preserve">
<style type="text/css">
	.st0{display:none;}
	.st1{display:inline;fill:url(#SVGID_1_);}
	.st2{fill:#FFFFFF;}
	.st3{fill:#CCCCCC;}
	.st4{fill:#C1C0BF;}
	.st5{fill:#DDC1A6;}
	.st6{fill:#DDDDDD;}
	.st7{fill:#D8B393;}
	.st8{fill:#C9A28D;}
	.st9{fill:url(#SVGID_2_);}
	.st10{fill:url(#SVGID_3_);}
	.st11{fill:url(#SVGID_4_);}
	.st12{opacity:0.3;fill:#FFE188;}
	.st13{fill:#75594A;}
	.st14{opacity:0.72;fill:#C4A691;}
	.st15{fill:none;stroke:#75594A;stroke-width:3;stroke-miterlimit:10;}
</style>
<g id="Слой_2" class="st0">
	<radialGradient id="SVGID_1_" cx="284.6667" cy="294.6667" r="276.029" gradientUnits="userSpaceOnUse">
		<stop  offset="0" style="stop-color:#FBB03B"/>
		<stop  offset="0.2002" style="stop-color:#B8812B"/>
		<stop  offset="0.4142" style="stop-color:#77541C"/>
		<stop  offset="0.609" style="stop-color:#443010"/>
		<stop  offset="0.7777" style="stop-color:#1F1607"/>
		<stop  offset="0.9137" style="stop-color:#080602"/>
		<stop  offset="1" style="stop-color:#000000"/>
	</radialGradient>
	<rect class="st1" width="566.9" height="566.9"/>
</g>
<g id="Слой_3">
	<rect class="st2" width="566.9" height="566.9"/>
</g>
<g id="Слой_1__x28_копия_x29_">
	<path class="st3" d="M383.1,376.5c20.7,35.3,18.8,87.3-36.9,92c-55.6,4.7-97.7-37.3-97.7-37.3h-49.8c0,0,9.1-6,11.6-26
		s9.1-22,9.1-22l131.3-2.7L383.1,376.5z"/>
	<path class="st4" d="M287.4,461.2c24.3-5.7,50.1-21.7,50.1-21.7s46.4-2.8,57.5-14.5c-16.8-4.5-48.5,3.8-48.5,3.8l-31,8.8
		L287.4,461.2z"/>
	<path class="st5" d="M387.6,373.2c11.5,1.9,26.8,10.5,21.2,33.1c-5.7,22.7-35.7,28.7-58.3,22c-18-22.7-12-40-12-40
		S368.4,370,387.6,373.2z"/>
	<path class="st6" d="M196.4,376.5c-20.7,35.3-18.8,87.3,36.9,92c55.6,4.7,102.2-32.5,102.2-32.5l45.3-4.9c0,0-9.1-6-11.6-26
		s-9.1-22-9.1-22l-131.3-2.7L196.4,376.5z"/>
	<path class="st4" d="M210.9,410.4c5.1,10.1,23.3,24.2,53.3,9.5c30-14.8,36.9-27.4,36.9-27.4l-4.5-0.5L210.9,410.4z"/>
	<path class="st5" d="M219.5,383.1c-17.8-4.5-27.3,35.5,0.7,41.8c27,6.1,40-10.5,40-10.5l9.8-22.5c0,0-24.8-5-26.3-5.5
		S219.5,383.1,219.5,383.1z"/>
	<path class="st3" d="M303.3,388.4l-40.2,1.1c0,0-5.1,26.3-17,35.5C267.9,419.8,296.3,398.4,303.3,388.4z"/>
	<path class="st7" d="M291.7,242c0,0-52.2,0.1-63,13.9c-10.8,13.7-2.6,101.8-2.6,101.8l45.7,14.8h74.2l19.4-7.4
		c0,0,2.9-104.6-14.3-110.4S291.7,242,291.7,242z"/>
	<path class="st8" d="M196.4,376.5c0,0,12.3,19.1,38.5,24.1s49.1,0.4,58.1-9.8c5,5.1,25.6,15.8,56.6,11c4.6-0.7,9-1.9,13.3-3.7
		c21.4-8.8,26.9-21.6,26.9-21.6l-79.1,4.3l-74.5-2.3L196.4,376.5z"/>
	<path class="st5" d="M359.5,255.8c30.7-6.1,35.3,48.6,42.2,75.2s-14.5,60.5-46.5,66.7c-26.3,6.4-59.8,2.7-66.5-18.9
		c-9.5-30.9,34.2-26.7,52.5-27.5c2.2-0.1,4.8-2.4,6.2-3.7c9.2-8.4,5.6-23,1.2-33.8C344,302.4,337.8,260.1,359.5,255.8z"/>
	<path class="st8" d="M293,358.9c10.9,5.8,10.6,19.5,1.3,30.2c-3.2-4-2.9-4.5-2.9-4.5L293,365L293,358.9z"/>
	<path class="st5" d="M226.9,255.8c-30.7-6.1-35.3,48.6-42.2,75.2c-6.9,26.6,14.5,60.5,46.5,66.7c26.3,6.4,59.8,2.7,66.5-18.9
		c9.5-30.9-34.2-26.7-52.5-27.5c-2.2-0.1-4.8-2.4-6.2-3.7c-9.2-8.4-5.6-23-1.2-33.8C242.4,302.4,248.6,260.1,226.9,255.8z"/>
	<g>
		<g>
			<linearGradient id="SVGID_2_" gradientUnits="userSpaceOnUse" x1="293.3727" y1="350.1791" x2="292.2842" y2="278.2615">
				<stop  offset="0" style="stop-color:#E61700"/>
				<stop  offset="1" style="stop-color:#FFAD00"/>
			</linearGradient>
			<path class="st9" d="M293.5,349.3c5-0.1,9.8-2.1,13.3-4.8c8.1-6.3,9.9-14.1,5.8-22.3c-1.7-3.8-4.5-7.1-5.7-11.2
				c-1.5-5.2,1.5-9,5.5-10.5c-2,0.3-3.8,0.6-5.7,1.3c-7.4,2.9-11.8,11.2-6.7,18.9l0,0c-2.8-4.3-2.8-7.2-2.2-10.7
				c1-6.7,5.3-11.4,3.6-18.9c-1.6-7.2-8.3-11.8-15-13c3.9,2.5,6.1,8.9,4.4,14.7c-1.7,6.1-6.1,11.2-10,16c-7.4,9-14,20.2-5.7,31.1
				C279.8,346.1,288.3,349.4,293.5,349.3L293.5,349.3z"/>
		</g>
		<g>
			<linearGradient id="SVGID_3_" gradientUnits="userSpaceOnUse" x1="294.2863" y1="284.2442" x2="293.7024" y2="348.0686">
				<stop  offset="0.103" style="stop-color:#FFC700"/>
				<stop  offset="0.1391" style="stop-color:#FFC200"/>
				<stop  offset="0.7309" style="stop-color:#FF6C00"/>
				<stop  offset="1" style="stop-color:#FF4A00"/>
			</linearGradient>
			<path class="st10" d="M293.4,348c3.6,0,8.4-1.9,11.3-4.2c5.8-4.4,8.6-9.8,6.5-16.5c-1.5-4.5-4.2-8.2-6.1-12.5
				c-1.4-3-1.3-7.1,0.4-9.6c-9,4.8-7,11.4-4.3,16.4c-2.1-0.9-3.8-2.3-4.9-4.5c-2.9-5.8,0.2-10.3,1.8-16c2-6.9,1.4-12.2-4.1-16.6
				c1.6,2.9,1.4,6.4,0.7,9.5c-0.9,3.5-2.7,6.8-4.8,9.9c-2.3,3.2-5.8,7.1-8.1,10.5c-2.3,3.5-5.4,11.2,1.4,17.8
				c-3.8-0.4-6.8-4.9-7.1-8c-2.8,12.2,5.3,22.6,16.8,23.9H293.4z"/>
		</g>
		<g>
			<linearGradient id="SVGID_4_" gradientUnits="userSpaceOnUse" x1="294.614" y1="346.9982" x2="293.1507" y2="300.3088">
				<stop  offset="9.090910e-02" style="stop-color:#FF8300"/>
				<stop  offset="0.5926" style="stop-color:#FFBB00"/>
				<stop  offset="1" style="stop-color:#FFEC00"/>
			</linearGradient>
			<path class="st11" d="M293.9,346.7c-3-0.1-10.3-3.3-10.5-11.5c1.1,3.2,4.1,5.1,6.4,5c1.8-2,2.2-4.8,0-7.3c-1.9-2.2-4.9-4.4-6-7.2
				c-0.9-2.4-1-4.7-0.4-7c1.2-4.6,5.8-9.2,9.8-11.7c-1.7,2.5-2.4,4.6-2.6,6c-0.3,1.9,0.1,4,1.1,5.7c0.9,1.7,2.5,3.1,3.7,4.6
				c1.8,2,4.1,6.5,2.8,9.1c2.9-1.5,4.2-6.1,3.5-8c1.3,1.4,2.3,3.1,2.8,4.9c2.2,7.1-1.4,15.7-10,17.4H293.9z"/>
		</g>
	</g>
	<path class="st5" d="M379.4,172.9c-19-26.5-11.8-72.2-85.1-72.2s-66.1,45.7-85.1,72.2c-19,26.5-22.6,96.4,85.1,96.4
		S398.4,199.4,379.4,172.9z"/>
	<g>
		<ellipse class="st12" cx="251.8" cy="174.8" rx="17.6" ry="16.7"/>
		<ellipse class="st12" cx="336.3" cy="174.8" rx="17.6" ry="16.7"/>
	</g>
	<g>
		<ellipse class="st5" cx="251.8" cy="175.7" rx="19.8" ry="6.7"/>
		<ellipse class="st5" cx="336.3" cy="175.7" rx="19.8" ry="6.7"/>
	</g>
	<g>
		<path class="st13" d="M234.9,179.2c0,0,5.2,6.6,16.7,6.6s17-6.6,17-6.6s-5.8,3.3-16.9,3.3S234.9,179.2,234.9,179.2z"/>
		<path class="st13" d="M319.4,179.2c0,0,5.2,6.6,16.7,6.6c11.5,0,17-6.6,17-6.6s-5.8,3.3-16.9,3.3S319.4,179.2,319.4,179.2z"/>
	</g>
	<path class="st14" d="M313.6,194.5l-13.2-29.1c-2.1-0.6-4.1-1-5.8-1c-0.4,0-0.6,0-1,0c-2.1,0.1-4.5,0.6-7.2,1.5l-12,29.2
		L313.6,194.5z"/>
	<path class="st13" d="M293.7,187.1c-1.8-0.1-11.3-0.1-16.7,4.3c-3.2,2.7-4.3,7.1-2.9,11.1c4.6,12.7,16,16.9,19.9,16.9
		c3.9,0,15.2-4.2,19.9-16.9c1.3-3.7,0.5-7.9-2.3-10.6c-5.3-4.9-15.3-4.8-17.2-4.8C294.1,187.1,293.9,187.1,293.7,187.1z"/>
	<g>
		<path class="st7" d="M378.9,171.3c15.3-3,30.7-9.4,24.2-38.2c-7.1-31.5-27.8-34.5-34.5-34.6s-21.3,1.7-26.2,11
			c-4.8,9.3,4.5,17.2,9.2,17.4c0.1,0.1,0.3,0.1,0.4,0.2c4.1-5.9,15.6-10.4,23.5-1.1c8.5,10,5.7,23.7-7.5,25.1
			c1.2,2.7,2.3,5.4,3.3,8.1c1.3,3.4,2.7,7.4,4.2,11.8C376.4,171.4,377.7,171.5,378.9,171.3z"/>
		<path class="st13" d="M367.9,151.1c13.3-1.4,16-15.1,7.5-25.1c-7.9-9.3-19.3-4.8-23.5,1.1c2.2,1.2,4.9,4.1,7.4,7.9h0.1
			C362.7,140.2,365.4,145.6,367.9,151.1z"/>
		<path class="st12" d="M378.9,171.3c13.4-2.6,26.9-7.9,25.6-28.5c-6.2,23.6-31.5,21.6-31.5,21.6c0.7,2.1,1.5,4.3,2.3,6.6
			C376.4,171.4,377.7,171.5,378.9,171.3z"/>
	</g>
	<g>
		<path class="st7" d="M221.5,150.2c-13.3-1.4-16.2-15.1-7.6-25.1c7.9-9.3,19.3-4.8,23.5,1.1c0.1-0.1,0.3-0.1,0.4-0.2
			c4.7-0.2,14-8.1,9.2-17.4c-4.8-9.3-19.4-11.2-26.2-11c-6.8,0.2-27.4,3.2-34.5,34.6c-6.5,28.8,8.9,35.2,24.2,38.2
			c1.2,0.2,2.4,0.1,3.5-0.2c1.3-4,2.7-7.6,3.8-10.8C218.9,156.2,220.2,153.2,221.5,150.2z"/>
		<path class="st13" d="M213.9,125c-8.5,10.1-5.7,23.8,7.6,25.1c1.3-3,2.7-5.9,4.3-8.8c3.3-7.2,8-13.4,11.5-15.3
			C233.2,120.2,221.8,115.7,213.9,125z"/>
		<path class="st12" d="M210.4,170.3c-13.4-2.6-26.9-7.9-25.6-28.5c6.2,23.6,31.5,21.6,31.5,21.6c-0.7,2.1-1.5,4.3-2.3,6.6
			C212.8,170.4,211.6,170.5,210.4,170.3z"/>
	</g>
	<g>
		<path class="st15" d="M341.6,231.8c0,0-1.8,8.4-17.2,8.4c-15.3,0-22.9-5.6-30.2-5.6s-14.8,5.6-30.2,5.6c-15.3,0-17.2-8.4-17.2-8.4
			"/>
		<g>
			<path class="st13" d="M244.9,240.2c-0.5-1.2-0.7-2.5-0.6-3.8c0.1-1.3,0.4-2.6,1-3.8c0.6-1.2,1.5-2.3,2.6-3
				c1.1-0.8,2.4-1.2,3.7-1.3c-1,0.9-1.9,1.6-2.6,2.5c-0.7,0.8-1.4,1.7-1.8,2.7C246.1,235.5,245.5,237.7,244.9,240.2z"/>
		</g>
		<g>
			<path class="st13" d="M343.7,240.2c-0.6-2.5-1.1-4.7-2.2-6.7c-0.5-1-1.1-1.9-1.8-2.7c-0.7-0.9-1.6-1.6-2.6-2.5
				c1.3,0.1,2.6,0.5,3.7,1.3c1.1,0.8,2,1.8,2.6,3c0.6,1.2,0.9,2.5,1,3.8C344.3,237.7,344.2,239,343.7,240.2z"/>
		</g>
	</g>
</g>
</svg>
